<mxfile host="app.diagrams.net" modified="2022-10-13T07:28:20.106Z" agent="5.0 (Windows NT 10.0; Win64; x64) AppleWebKit/537.36 (KHTML, like Gecko) Chrome/106.0.0.0 Safari/537.36" etag="mXmUd1PTsXNfOM8cb_XC" version="20.4.0" type="github">
  <diagram id="R2lEEEUBdFMjLlhIrx00" name="Page-1">
    <mxGraphModel dx="868" dy="460" grid="1" gridSize="10" guides="1" tooltips="1" connect="1" arrows="0" fold="1" page="1" pageScale="1" pageWidth="1169" pageHeight="827" math="0" shadow="0" extFonts="Permanent Marker^https://fonts.googleapis.com/css?family=Permanent+Marker">
      <root>
        <mxCell id="0" />
        <mxCell id="1" parent="0" />
        <mxCell id="g_xoqukgkqyQ-j_yjz55-4" value="OFICINA" style="whiteSpace=wrap;html=1;align=center;" vertex="1" parent="1">
          <mxGeometry x="380" y="300" width="100" height="40" as="geometry" />
        </mxCell>
        <mxCell id="g_xoqukgkqyQ-j_yjz55-5" value="COMERCIAL" style="whiteSpace=wrap;html=1;align=center;" vertex="1" parent="1">
          <mxGeometry x="570" y="480" width="100" height="40" as="geometry" />
        </mxCell>
        <mxCell id="g_xoqukgkqyQ-j_yjz55-9" style="edgeStyle=orthogonalEdgeStyle;rounded=0;orthogonalLoop=1;jettySize=auto;html=1;exitX=0;exitY=0.5;exitDx=0;exitDy=0;entryX=1;entryY=0.5;entryDx=0;entryDy=0;endArrow=none;endFill=0;" edge="1" parent="1" source="g_xoqukgkqyQ-j_yjz55-6" target="g_xoqukgkqyQ-j_yjz55-8">
          <mxGeometry relative="1" as="geometry" />
        </mxCell>
        <mxCell id="g_xoqukgkqyQ-j_yjz55-6" value="DIRECTOR" style="whiteSpace=wrap;html=1;align=center;" vertex="1" parent="1">
          <mxGeometry x="640" y="300" width="100" height="40" as="geometry" />
        </mxCell>
        <mxCell id="g_xoqukgkqyQ-j_yjz55-13" style="edgeStyle=orthogonalEdgeStyle;rounded=0;orthogonalLoop=1;jettySize=auto;html=1;exitX=0.5;exitY=0;exitDx=0;exitDy=0;entryX=0.5;entryY=1;entryDx=0;entryDy=0;endArrow=none;endFill=0;" edge="1" parent="1" source="g_xoqukgkqyQ-j_yjz55-7" target="g_xoqukgkqyQ-j_yjz55-12">
          <mxGeometry relative="1" as="geometry" />
        </mxCell>
        <mxCell id="g_xoqukgkqyQ-j_yjz55-7" value="VENDEDOR" style="whiteSpace=wrap;html=1;align=center;" vertex="1" parent="1">
          <mxGeometry x="380" y="420" width="100" height="40" as="geometry" />
        </mxCell>
        <mxCell id="g_xoqukgkqyQ-j_yjz55-10" style="edgeStyle=orthogonalEdgeStyle;rounded=0;orthogonalLoop=1;jettySize=auto;html=1;exitX=0;exitY=0.5;exitDx=0;exitDy=0;entryX=1;entryY=0.5;entryDx=0;entryDy=0;endArrow=none;endFill=0;" edge="1" parent="1" source="g_xoqukgkqyQ-j_yjz55-8" target="g_xoqukgkqyQ-j_yjz55-4">
          <mxGeometry relative="1" as="geometry" />
        </mxCell>
        <mxCell id="g_xoqukgkqyQ-j_yjz55-8" value="DIRIGE" style="shape=rhombus;perimeter=rhombusPerimeter;whiteSpace=wrap;html=1;align=center;" vertex="1" parent="1">
          <mxGeometry x="500" y="290" width="120" height="60" as="geometry" />
        </mxCell>
        <mxCell id="g_xoqukgkqyQ-j_yjz55-11" value="1:1" style="text;html=1;strokeColor=none;fillColor=none;align=center;verticalAlign=middle;whiteSpace=wrap;rounded=0;" vertex="1" parent="1">
          <mxGeometry x="530" y="260" width="60" height="30" as="geometry" />
        </mxCell>
        <mxCell id="g_xoqukgkqyQ-j_yjz55-14" style="edgeStyle=orthogonalEdgeStyle;rounded=0;orthogonalLoop=1;jettySize=auto;html=1;exitX=0.5;exitY=0;exitDx=0;exitDy=0;entryX=0.5;entryY=1;entryDx=0;entryDy=0;endArrow=none;endFill=0;" edge="1" parent="1" source="g_xoqukgkqyQ-j_yjz55-12" target="g_xoqukgkqyQ-j_yjz55-4">
          <mxGeometry relative="1" as="geometry" />
        </mxCell>
        <mxCell id="g_xoqukgkqyQ-j_yjz55-12" value="TRABAJA EN" style="shape=rhombus;perimeter=rhombusPerimeter;whiteSpace=wrap;html=1;align=center;" vertex="1" parent="1">
          <mxGeometry x="370" y="350" width="120" height="60" as="geometry" />
        </mxCell>
        <mxCell id="g_xoqukgkqyQ-j_yjz55-15" value="1:N" style="text;html=1;strokeColor=none;fillColor=none;align=center;verticalAlign=middle;whiteSpace=wrap;rounded=0;" vertex="1" parent="1">
          <mxGeometry x="320" y="365" width="60" height="30" as="geometry" />
        </mxCell>
        <mxCell id="g_xoqukgkqyQ-j_yjz55-18" style="edgeStyle=orthogonalEdgeStyle;rounded=0;orthogonalLoop=1;jettySize=auto;html=1;exitX=1;exitY=0.5;exitDx=0;exitDy=0;entryX=0;entryY=0.5;entryDx=0;entryDy=0;endArrow=none;endFill=0;" edge="1" parent="1" source="g_xoqukgkqyQ-j_yjz55-16" target="g_xoqukgkqyQ-j_yjz55-17">
          <mxGeometry relative="1" as="geometry" />
        </mxCell>
        <mxCell id="g_xoqukgkqyQ-j_yjz55-16" value="LIBROS" style="whiteSpace=wrap;html=1;align=center;" vertex="1" parent="1">
          <mxGeometry x="110" y="300" width="100" height="40" as="geometry" />
        </mxCell>
        <mxCell id="g_xoqukgkqyQ-j_yjz55-19" style="edgeStyle=orthogonalEdgeStyle;rounded=0;orthogonalLoop=1;jettySize=auto;html=1;exitX=1;exitY=0.5;exitDx=0;exitDy=0;entryX=0;entryY=0.5;entryDx=0;entryDy=0;endArrow=none;endFill=0;" edge="1" parent="1" source="g_xoqukgkqyQ-j_yjz55-17" target="g_xoqukgkqyQ-j_yjz55-4">
          <mxGeometry relative="1" as="geometry" />
        </mxCell>
        <mxCell id="g_xoqukgkqyQ-j_yjz55-17" value="COMPRAN" style="shape=rhombus;perimeter=rhombusPerimeter;whiteSpace=wrap;html=1;align=center;" vertex="1" parent="1">
          <mxGeometry x="230" y="290" width="120" height="60" as="geometry" />
        </mxCell>
      </root>
    </mxGraphModel>
  </diagram>
</mxfile>
